<?xml version="1.0" encoding="UTF-8"?>
<svg id="Layer_1" data-name="Layer 1" xmlns="http://www.w3.org/2000/svg" viewBox="0 0 655.87 669.17">
  <defs>
    <style>
      .cls-1 {
        fill: #fff;
      }

      .cls-2 {
        stroke-width: 7px;
      }

      .cls-2, .cls-3 {
        fill: none;
        stroke: #fff;
        stroke-miterlimit: 10;
      }

      .cls-3 {
        stroke-width: 12px;
      }
    </style>
  </defs>
  <path class="cls-1" d="M318.46,27.88v7.55c0,15.4,12.48,27.88,27.88,27.88h46.33c21.35,0,34.78,23.01,24.27,41.6l-8.63,15.27c-4.95,8.75-14.22,14.16-24.27,14.16H188.82c-15.4,0-27.88,12.48-27.88,27.88v9.1c0,15.4,12.48,27.88,27.88,27.88h380.27c15.18,0,27.57,12.14,27.88,27.32l1.99,99.01c.31,15.18,12.7,27.32,27.88,27.32h0c16.04,0,29.04-13,29.04-29.04V162.23c0-15.4-12.48-27.88-27.88-27.88h-109.94c-22.12,0-35.43-24.52-23.38-43.07l31.31-48.22c12.05-18.55-1.27-43.07-23.38-43.07h-156.27c-15.4,0-27.88,12.48-27.88,27.88Z"/>
  <rect class="cls-3" x="241.08" y="253.47" width="166.03" height="166.03" rx="48.61" ry="48.61"/>
  <polyline class="cls-2" points="247.46 336.93 165.62 336.93 165.62 165.04"/>
  <path class="cls-1" d="M337.42,641.29v-7.55c0-15.4-12.48-27.88-27.88-27.88h-46.33c-21.35,0-34.78-23.01-24.27-41.6l8.63-15.27c4.95-8.75,14.22-14.16,24.27-14.16h195.21c15.4,0,27.88-12.48,27.88-27.88v-9.1c0-15.4-12.48-27.88-27.88-27.88H86.78c-15.18,0-27.57-12.14-27.88-27.32l-1.99-99.01c-.31-15.18-12.7-27.32-27.88-27.32h0C13,316.31,0,329.31,0,345.35v161.59c0,15.4,12.48,27.88,27.88,27.88h109.94c22.12,0,35.43,24.52,23.38,43.07l-31.31,48.22c-12.05,18.55,1.27,43.07,23.38,43.07h156.27c15.4,0,27.88-12.48,27.88-27.88Z"/>
  <polyline class="cls-2" points="408.41 332.24 490.25 332.24 490.25 504.13"/>
</svg>